<svg id="ab6169ed-78ea-4afd-a2a8-db21717314d4" data-name="Layer 1" xmlns="http://www.w3.org/2000/svg" viewBox="0 0 1000 232.78"><defs><style>.f74f453a-70b1-48ed-af62-d323d55b4a57{fill:#1a2e53;}.a7328c0c-7378-4a10-9507-6e82e8063965{fill:#51a9da;}.ffa3b54f-b9c6-4efa-8f30-8f3246304148{fill:#192e53;}</style></defs><title>logo-main-full-color</title><path class="f74f453a-70b1-48ed-af62-d323d55b4a57" d="M100.66,3V20.54a7,7,0,0,1-3.49,6.07L27.62,67a6.47,6.47,0,0,0-3.21,5.59v89.6a3,3,0,0,0,1.49,2.59l30.85,17.9a3,3,0,0,1,1.49,2.6v19.94a3,3,0,0,1-4.51,2.59L1.49,177.46A3,3,0,0,1,0,174.87V57.92a3,3,0,0,1,1.49-2.6L96.15.35A3,3,0,0,1,100.66,3Z"/><path class="f74f453a-70b1-48ed-af62-d323d55b4a57" d="M68.35,140.62l30.82,17.9a3,3,0,0,1,1.49,2.6v68.71a3,3,0,0,1-4.51,2.6L77.78,221.75a3,3,0,0,1-1.49-2.59l0-45.36a3,3,0,0,0-1.49-2.6L44,153.3a3,3,0,0,1-1.5-2.59V82A3,3,0,0,1,44,79.45l52.2-30.29a3,3,0,0,1,4.51,2.6v19.9a3,3,0,0,1-1.49,2.6L68.35,92.16a3,3,0,0,0-1.49,2.59V138A3,3,0,0,0,68.35,140.62Z"/><path class="a7328c0c-7378-4a10-9507-6e82e8063965" d="M219.4,60V172.83a6.54,6.54,0,0,1-3.25,5.65l-92.94,54a3,3,0,0,1-4.5-2.6V212.21a7,7,0,0,1,3.49-6.07l71.3-41.36a3,3,0,0,0,1.5-2.6V70.6a3,3,0,0,0-1.5-2.6L162.65,50.1a3,3,0,0,1-1.49-2.59V27.6A3,3,0,0,1,165.67,25L216.15,54.3A6.54,6.54,0,0,1,219.4,60Z"/><path class="a7328c0c-7378-4a10-9507-6e82e8063965" d="M177,82.08v66.33a7,7,0,0,1-3.48,6l-50.26,29.17a3,3,0,0,1-4.5-2.6v-19.9a3,3,0,0,1,1.49-2.59l30.85-17.91a3,3,0,0,0,1.49-2.59V94.76a3,3,0,0,0-1.49-2.6L120.2,74.26a3,3,0,0,1-1.49-2.6V3a3,3,0,0,1,4.5-2.6L141.62,11a3,3,0,0,1,1.49,2.6V59a3,3,0,0,0,1.5,2.6l30.84,17.9A3,3,0,0,1,177,82.08Z"/><path class="ffa3b54f-b9c6-4efa-8f30-8f3246304148" d="M369.68,58.08c23.76,0,38.68,14.42,38.68,38S393.44,134,369.68,134H344.16a3,3,0,0,0-3,3v34.49a3,3,0,0,1-3,3H323.5a3,3,0,0,1-3-3V61.08a3,3,0,0,1,3-3Zm-2,56.71c12,0,19-6.89,19-18.69s-7.05-18.85-19-18.85H344.16a3,3,0,0,0-3,3v31.54a3,3,0,0,0,3,3Z"/><path class="ffa3b54f-b9c6-4efa-8f30-8f3246304148" d="M574.59,89.55a3,3,0,0,1,3,3v84.68c0,22.46-11.31,35.74-36.06,35.74-16.23,0-27.7-5.25-34.09-15.74-2.3-3.61-2.68-5.82,1.09-7.63l8.2-4.44c3.93-2,4.8-1,7.26,2.4q5.16,8.35,17.21,8.36c11.64,0,17.37-5.9,17.37-17.7v-4a3,3,0,0,0-3.55-3,87.56,87.56,0,0,1-15.95,1.58c-23,0-34.26-11.8-34.26-32.95V92.55a3,3,0,0,1,3-3h13a3,3,0,0,1,3,3v46.66c0,10.82,5.9,16.22,17.86,16.22a66.8,66.8,0,0,0,14.52-1.73,3,3,0,0,0,2.36-2.94V92.55a3,3,0,0,1,3-3Z"/><path class="ffa3b54f-b9c6-4efa-8f30-8f3246304148" d="M629.24,87.09c17.54,0,29.34,5.9,35.08,17.53,1.8,3.28.82,5.74-2.62,7.38l-7.38,3c-3.77,1.48-4.75,1.15-6.88-2.29-3.12-5.74-9-8.53-17.71-8.53-10.32,0-15.4,3-15.4,8.85,0,7.22,4.91,8.85,19.18,10.17,22.29,2.13,33.43,8,33.43,26.38,0,16.56-12.62,27.38-35.4,27.38-19.18,0-31.47-6.56-36.55-19.84-1.31-3.44-.17-5.73,3.27-6.88l7.38-2.29c3.28-1.32,5.25-.66,6.72,3.11,2.46,6.06,8.69,9,18.52,9,11.64,0,17.38-3.27,17.38-9.66,0-7.22-5.09-9-19.67-10.5-7.71-.82-12.13-1.47-18.52-3.93a23.16,23.16,0,0,1-7.71-4.43c-3.93-3.44-6.88-9.67-6.88-18C595.48,97.25,607.12,87.09,629.24,87.09Z"/><path class="ffa3b54f-b9c6-4efa-8f30-8f3246304148" d="M875.7,87.09c22.95,0,34.1,11.8,34.1,32.94v51.42a3,3,0,0,1-3,3h-13a3,3,0,0,1-3-3V120.52c0-10.65-5.9-16.06-17.86-16.06a58,58,0,0,0-15.74,2.13,1.57,1.57,0,0,0-1.14,1.64v63.22a3,3,0,0,1-3,3H840a3,3,0,0,1-3-3V102c0-5.24,1.15-7.21,6.4-9.34C852.76,88.89,863.41,87.09,875.7,87.09Z"/><path class="ffa3b54f-b9c6-4efa-8f30-8f3246304148" d="M927.23,121.34c0-22.29,11.47-34.25,34.25-34.25a100.91,100.91,0,0,1,16,1.52,3,3,0,0,0,3.5-3V56.16a3,3,0,0,1,3-3h13a3,3,0,0,1,3,3V162.65c0,5.24-1.31,6.88-6.56,9a87.83,87.83,0,0,1-30.65,5.25c-23.76,0-35.56-11-35.56-33.11ZM981,109a3,3,0,0,0-2.41-3,69.2,69.2,0,0,0-13.49-1.61c-12.62,0-18.85,5.74-18.85,17.37v21.31c0,11,6.06,16.39,18.36,16.39a58.36,58.36,0,0,0,15.08-1.8,1.91,1.91,0,0,0,1.31-1.8Z"/><path class="ffa3b54f-b9c6-4efa-8f30-8f3246304148" d="M712.6,107.12h17.79a3,3,0,0,0,3-3V92.56a3,3,0,0,0-3-3H712.6a3,3,0,0,1-3-3V72.88a3,3,0,0,0-3-3h-13a3,3,0,0,0-3,3V86.56a3,3,0,0,1-3,3H677.33a3,3,0,0,0-3,3v11.56a3,3,0,0,0,3,3h10.24a3,3,0,0,1,3,3l0,45.63C690.61,185.9,730,174,730,174c2.69-.92,3.46-1.87,3.36-3.36l-2.48-9.86c-1.57-5.41-1.95-6.27-4.6-5.6a29.3,29.3,0,0,1-8.39,2.07c-4.14.61-8.32-2.83-8.32-8.32v-38.8A3,3,0,0,1,712.6,107.12Z"/><path class="ffa3b54f-b9c6-4efa-8f30-8f3246304148" d="M451.42,87.09c23.44,0,35.08,11.31,35.08,33.76V163.3c0,5.74-1.31,7.38-5.9,9.34-6.56,2.79-16.4,4.27-29.51,4.27-13.93,0-23.44-2.13-28.68-6.56-5.24-4.26-7.87-11-7.87-20,0-19.51,10.49-26.39,37.21-26.39,1,0,5.2.25,12.57.65a3,3,0,0,0,3.16-3V120.2c0-10.66-4.59-16.23-16.39-16.23q-12,0-17.21,7.87c-2.43,3.4-3.26,3.76-6.92,2.5l-.24-.1L419.29,111c-3.6-1.64-3.6-3.59-1.8-6.87C423.39,92.82,434.7,87.09,451.42,87.09Zm16.06,56.14a3,3,0,0,0-2.87-3c-9.59-.42-14.54-.69-15-.69-11.8,0-15.74,3.44-15.74,10.65,0,7.38,3.45,11,15.41,11a83.12,83.12,0,0,0,16.39-1.31,2.41,2.41,0,0,0,1.8-2.29Z"/><path class="ffa3b54f-b9c6-4efa-8f30-8f3246304148" d="M783,87.09c23.44,0,35.07,11.31,35.07,33.76V163.3c0,5.74-1.31,7.38-5.9,9.34-6.55,2.79-16.39,4.27-29.5,4.27-13.93,0-23.44-2.13-28.68-6.56-5.25-4.26-7.87-11-7.87-20,0-19.51,10.49-26.39,37.2-26.39,1,0,5.21.25,12.57.65a3,3,0,0,0,3.17-3V120.2c0-10.66-4.59-16.23-16.39-16.23q-12,0-17.21,7.87c-2.43,3.4-3.26,3.76-6.92,2.5l-.25-.1L750.88,111c-3.6-1.64-3.6-3.59-1.8-6.87C755,92.82,766.29,87.09,783,87.09Zm16.06,56.14a3,3,0,0,0-2.87-3c-9.59-.42-14.55-.69-15-.69-11.8,0-15.73,3.44-15.73,10.65,0,7.38,3.44,11,15.41,11a83.26,83.26,0,0,0,16.39-1.31,2.42,2.42,0,0,0,1.8-2.29Z"/></svg>